<?xml version="1.0" encoding="utf-8"?>
<!-- Generator: Adobe Illustrator 24.0.0, SVG Export Plug-In . SVG Version: 6.00 Build 0)  -->
<svg version="1.1" id="Layer_1" xmlns="http://www.w3.org/2000/svg" xmlns:xlink="http://www.w3.org/1999/xlink" x="0px" y="0px"
	 viewBox="0 0 1200 1200" style="enable-background:new 0 0 1200 1200;" xml:space="preserve">
<style type="text/css">
	.st0{fill:#FF5A5F;}
	.st1{fill:#FE5A5F;}
	.st2{fill:#FEFAFA;}
	.st3{fill:#FEF9F9;}
	.st4{fill:#FEFEFE;}
</style>
<g>
	<path class="st0" d="M416.32,936.16c-1.25,9.07-2.73,14.48-2.62,19.85c0.85,41.52,0.82,37.25-37.77,37.34
		c-56.66,0.12-113.32-0.51-169.97,0.35c-17.74,0.27-23.61-5.68-23.54-23.43c0.55-128.47,0.57-256.95-0.01-385.42
		c-0.08-18.01,6.31-23.3,23.77-23.18c90.97,0.65,181.94,0.09,272.91,0.6c10.85,0.06,22.16,2.78,32.44,6.53
		c74.85,27.3,149.45,55.28,224.2,82.82c42.86,15.79,68.09,46.51,74.84,91.1c2.43,16.07,10.25,19.61,23.87,19.58
		c23.94-0.05,47.89-0.17,71.81,0.63c67.7,2.27,123.61,78.24,105.12,143.41c-1.52,5.37-8.92,11.06-14.76,12.91
		c-96.44,30.46-192.95,60.7-289.82,89.76c-10.37,3.11-23.53,0.25-34.59-2.76c-75.28-20.51-150.34-41.83-225.5-62.79
		C437.65,940.92,428.43,939.04,416.32,936.16z M552.25,726.33c8.29,1.98,13.93,2.6,18.99,4.65c46.89,18.94,95.37,30.09,146.1,29.89
		c6.51-0.03,16.35-1.29,18.62-5.36c2.5-4.46,0.2-15.08-3.88-19.02c-8.28-8.01-18.4-15.3-29.09-19.44
		c-60.88-23.59-121.7-47.49-183.5-68.46c-24.99-8.48-52.36-10.04-78.72-14.34c-20.27-3.31-28.19,4.43-27.69,26.15
		c1.35,58.18,1.15,116.43,0.06,174.63c-0.35,18.64,6.44,26.97,23.98,31.62c79.98,21.22,159.58,43.87,239.65,64.75
		c12.27,3.2,27.05,2.61,39.29-0.96c65.7-19.16,130.98-39.76,196.35-60.07c7.3-2.27,14.17-5.9,21.56-9.03
		c-7.47-21.15-21.99-26.22-40.25-26.15c-57.42,0.21-114.96-2.28-172.22,0.69c-63.51,3.29-120.66-17.75-178.19-38.78
		c-4.74-1.73-10.38-12.16-9.2-16.97C538.43,762.58,545.46,745.68,552.25,726.33z M255.38,776.9c0,27.9,0,55.79,0,83.69
		c0,61.79,0,61.09,61.56,60.98c18.92-0.03,24.88-6.03,24.63-24.77c-0.88-66.94-0.33-133.9-0.33-200.85c0-64.5,0.01-64-65.81-62.09
		c-15.8,0.46-20.57,5.89-20.29,21.1C255.9,695.59,255.4,736.25,255.38,776.9z"/>
	<path class="st0" d="M973.77,524.66c0,41.49-0.56,83,0.27,124.48c0.34,16.81-3.97,24.82-22.62,24.44
		c-59.58-1.19-49.72,5.13-50.2-49.18c-0.54-60.64-0.66-121.3,0.2-181.93c0.25-17.82-5.31-29.47-20.28-39.68
		c-56-38.2-111.49-77.17-166.4-116.92c-13.39-9.69-22.99-9.22-35.88,0.02c-51.21,36.69-102.46,73.4-154.89,108.3
		c-21.28,14.17-34.24,29.4-29.3,56.23c3.61,19.61-5.27,26.61-25.33,26c-53.94-1.64-44.25,5.77-47.98-47.38
		c-2.54-36.22,9.66-57.79,39.87-77.91c73.64-49.06,144.78-101.9,216.34-154.03c13.57-9.89,22.83-11.41,37.44-0.72
		c78.52,57.46,157.68,114.07,237.39,169.86c16.36,11.45,22.5,23.89,21.77,43.53C972.76,448.02,973.77,486.36,973.77,524.66z"/>
	<path class="st0" d="M716.87,491.66c6.77-3.67,14.35-11.19,20.09-9.98c6.37,1.34,11.07,10.64,16.49,16.48
		c-5.83,5.41-11.18,14.32-17.62,15.19c-5.78,0.78-12.75-7.29-19.19-11.45C716.72,498.49,716.8,495.07,716.87,491.66z"/>
	<path class="st0" d="M737.54,443.04c-9.03-11.92-17.95-19.03-16.73-23.13c1.96-6.6,10.03-14.33,16.64-15.55
		c4.3-0.8,13.95,8.51,14.97,14.37C753.31,423.92,745.6,430.61,737.54,443.04z"/>
	<path class="st0" d="M681.52,498.85c-12.37,7.86-19.13,15.5-24.19,14.51c-5.89-1.16-15.1-10.82-14.25-15.08
		c1.31-6.61,9.09-14.54,15.73-16.52C662.78,480.57,669.82,489.64,681.52,498.85z"/>
	<path class="st0" d="M679.54,418.73c-10.36,7.23-16.72,14.92-21.03,13.91c-6.25-1.47-11.01-9.24-16.4-14.32
		c5.51-4.97,10.45-12.64,16.74-13.99C663.15,403.4,669.35,411.25,679.54,418.73z"/>
</g>
</svg>
