<?xml version="1.0" encoding="utf-8"?>
<!-- Generator: Adobe Illustrator 24.0.0, SVG Export Plug-In . SVG Version: 6.00 Build 0)  -->
<svg version="1.1" id="Layer_1" xmlns="http://www.w3.org/2000/svg" xmlns:xlink="http://www.w3.org/1999/xlink" x="0px" y="0px"
	 viewBox="0 0 1200 1200" style="enable-background:new 0 0 1200 1200;" xml:space="preserve">
<style type="text/css">
	.st0{fill:#FF5A5F;}
	.st1{fill:#FE5A5F;}
	.st2{fill:#FEFAFA;}
	.st3{fill:#FEF9F9;}
	.st4{fill:#FEFEFE;}
</style>
<g>
	<path class="st1" d="M77.58,739.91c18.65-12.47,34.2-22.87,52.11-34.84c-17.29-10.37-32.85-19.71-52.06-31.23
		c16.86-11.39,31.23-21.09,47.08-31.8c-11.47-15.06-30.85-17.56-45.51-31.66c48.89-31.56,95.99-62,143.14-92.37
		c22.94-14.78,46.18-29.09,68.84-44.28c10.72-7.18,23.59-15.78,31.58-2.29c6.98,11.79-10.09,14.4-17.21,19.06
		c-59.73,39.12-119.98,77.46-183.62,118.3c60.94,34.37,118.73,66.96,176.53,99.54c42.61,24.02,85.6,47.4,127.65,72.37
		c14.08,8.36,24.25,7.95,37.92-1.01c56.66-37.13,114.03-73.17,171.44-109.14c7.72-4.84,18.16-16.81,25.95-2.71
		c6.28,11.38-7.46,15.25-14.74,20c-61.49,40.08-123.45,79.44-184.56,120.08c-13.7,9.11-23.89,9.09-37.89,1
		C340.36,760.44,255.61,713.43,172,664.49c-18.86-11.04-32.39-11.28-47.37,8.16c16.22,9.39,32.09,18.73,48.11,27.82
		c83.44,47.38,167.15,94.28,250.17,142.38c15.81,9.16,27.31,9.56,42.86-0.78c54.05-35.94,108.88-70.76,164.15-104.8
		c9.67-5.96,23.15-24.93,31.37-12.3c10.97,16.87-11.24,24.11-23.1,31.78c-53.72,34.76-108.93,67.35-161.25,104.07
		c-25.4,17.82-43.78,17.08-69.92,1.42c-76.63-45.91-155.77-87.64-232.79-132.93c-20.87-12.27-34.11-8.45-50.13,9.72
		c43.28,24.54,85.51,48.46,127.73,72.42c58.09,32.97,116.45,65.47,174.03,99.31c14.25,8.37,24.25,7.6,37.81-1.35
		c64.33-42.42,129.4-83.71,195.17-126.02c9.26,15.63,3.83,24.44-8.94,32.52c-64.43,40.71-128.85,81.46-192.6,123.21
		c-13.06,8.56-22.11,4.64-33.3-1.7c-82.65-46.87-165.87-92.74-247.96-140.56c-19.68-11.46-34.24-11.99-49.32,5.31
		c1.22,8.89,9.81,10.15,15.88,13.61c94,53.55,188.32,106.54,281.99,160.65c15.36,8.87,26.3,7.78,40.6-1.69
		c56.49-37.38,113.75-73.6,170.77-110.18c7.78-4.99,15.79-9.61,24.12-14.66c6.89,15.04,3.07,24.13-9.42,32.01
		c-65.26,41.16-130.26,82.73-195.12,124.51c-9,5.79-16.19,6.14-25.69,0.71C314.67,941.36,199.28,875.98,84,810.41
		c-1.35-0.77-1.98-2.79-4.05-5.89c15.63-10.29,31.2-20.54,49.58-32.64C112.28,761.27,96.77,751.72,77.58,739.91z"/>
	<path class="st1" d="M843.69,522.74c-51.64,33.81-98.88,64.59-145.93,95.65c-9.77,6.45-17.74,10.77-30.32,3.42
		c-91.7-53.62-183.93-106.32-275.96-159.38c-2.39-1.38-4.31-3.56-8.59-7.18c49.24-32.25,97.09-63.57,144.91-94.94
		c6.15-4.03,12.16-4.05,18.55-0.54C644.29,413.48,742.25,467.15,843.69,522.74z"/>
	<path class="st1" d="M513.54,705.28c-39.62-9.69-85.7-8.09-130.4,11.54c-8.51,3.73-14.48,0-20.92-3.68
		c-33.43-19.12-66.49-38.94-100.36-57.25c-14.48-7.83-13.06-13.62-3.58-25c17.41-20.91,20.83-44.28,2.47-66.73
		c-8.04-9.83-4.09-14.18,4.32-19.49c26.22-16.55,52.36-33.23,78.24-50.31c7.98-5.27,14.47-5.59,23-0.61
		c81.13,47.35,162.4,94.47,243.9,141.17c14.55,8.34,14.82,13.71,0.29,22.37c-24.2,14.42-47.64,30.13-71.32,45.43
		C533.5,706.36,527.95,709.76,513.54,705.28z"/>
	<path class="st1" d="M588.25,337.78c27.25-17.24,51.19-32.05,74.73-47.47c7.89-5.17,14.8-5.15,23.72-2.42
		c40.21,12.32,80.26,8.63,118.79-6.35c14.88-5.79,26.19-4.53,39.29,3.23c30.74,18.21,61.89,35.74,93.31,52.75
		c12.08,6.54,17.65,10.7,5.06,23.57c-19.27,19.7-22.91,43.3-5.19,66.21c8.03,10.38,6.53,15.5-3.76,21.79
		c-18.46,11.27-36.78,22.83-54.46,35.26c-9.31,6.55-16.52,4.8-25.58-0.21C766.99,435.87,679.63,388,588.25,337.78z"/>
	<path class="st1" d="M1122.42,382.34c-18.55,12.78-33.11,22.82-50.1,34.53c16.45,9.87,30.7,18.42,46.52,27.9
		c-8.46,12.72-21.62,18.16-33.05,25.11c-14.04,8.54-15.31,14.81,0.28,22.54c10.89,5.4,21.21,11.94,35.58,20.14
		c-18.44,11.94-34.4,22.28-52.45,33.97c17.39,10.52,32.99,19.95,52.46,31.74c-74.15,47.93-145.38,93.97-217.29,140.45
		c-8.21-20.17,2.09-28.31,14.98-36.49c51.58-32.72,102.8-66.01,155.15-99.74c-17.42-19.03-32.63-20.69-53.56-5.77
		c-37.22,26.53-76.71,49.89-115.77,74.9c-9.68-18.94,1.2-26.14,12.78-33.51c44.44-28.32,88.82-56.75,133.04-85.41
		c7.57-4.91,16.91-7.92,21.89-17.47c-15.72-16.05-30.17-20.65-50.86-5.6c-32.67,23.76-67.62,44.41-101.86,65.98
		c-4.91,3.1-11.11,11.58-16.69,4.63c-5.77-7.18-3.3-16.37,5.09-21.94c16.46-10.93,33.13-21.54,49.73-32.25
		c38.52-24.85,77.05-49.68,115.89-74.72c-15.22-19.87-29.39-20.8-48.59-7.06c-33.64,24.08-68.87,45.96-104,67.86
		c-5.25,3.27-12.04,16.41-20.27,2.88c-6.73-11.05,0.41-16.62,9.19-22.17c46.93-29.67,93.65-59.67,140.38-89.65
		c7.68-4.93,15.06-10.33,25.93-17.82c-15.35-8.93-27.97-16.42-40.73-23.67c-84.26-47.85-169.14-94.66-252.45-144.11
		c-22.32-13.25-37.46-11.58-57.78,2.47c-44.86,31.03-91.51,59.47-137.43,88.96c-4.75,3.05-9.9,5.6-14.23,9.16
		c-9.39,7.71-19.04,5.96-24.19-2.99c-5.57-9.68,6.26-11.69,11.73-15.25c39.43-25.66,82.72-46.77,117.95-77.22
		c54.22-46.86,99.46-41.84,157.85-3.53C927.74,278.35,1024.75,327.13,1122.42,382.34z"/>
	<path class="st1" d="M703.33,850.77c0-62.39,0.05-117.92-0.05-173.44c-0.02-8.84,1.11-16.72,9.45-22.06
		c48.03-30.77,95.98-61.68,148.48-95.45c0,61.86-0.04,118.02,0.05,174.18c0.01,7.16-2.4,12.66-8.45,16.7
		C804.57,782.95,756.36,815.26,703.33,850.77z"/>
	<path class="st2" d="M409.2,635.15c-10.94-1.66-27.2-0.31-25.18-17.36c1.98-16.71,18.51-19.86,32.59-19.56
		c11.31,0.24,28.38,0.58,26.08,17.25C440.52,631.28,424.77,634.89,409.2,635.15z"/>
	<path class="st3" d="M785.43,397.38c-14-1.6-28.04-2.57-27.78-16.84c0.34-19.43,17.13-22.3,32.43-22.79
		c12.35-0.4,27.97,1.79,27.05,17.18C815.98,393.88,796.58,392.95,785.43,397.38z"/>
</g>
</svg>
