<?xml version="1.0" encoding="utf-8"?>
<!-- Generator: Adobe Illustrator 24.0.0, SVG Export Plug-In . SVG Version: 6.00 Build 0)  -->
<svg version="1.1" id="Layer_1" xmlns="http://www.w3.org/2000/svg" xmlns:xlink="http://www.w3.org/1999/xlink" x="0px" y="0px"
	 viewBox="0 0 1200 1200" style="enable-background:new 0 0 1200 1200;" xml:space="preserve">
<style type="text/css">
	.st0{fill:#FF5A5F;}
	.st1{fill:#FE5A5F;}
	.st2{fill:#FEFAFA;}
	.st3{fill:#FEF9F9;}
	.st4{fill:#FEFEFE;}
</style>
<g>
	<path class="st1" d="M722,762.35c0,60.75-0.49,121.5,0.33,182.24c0.21,15.84-2.4,22.71-20.57,22.41
		c-67.77-1.12-135.57-0.89-203.35-0.1c-15.04,0.18-19.14-4.22-18.91-19.11c0.85-54.25-0.21-108.54,0.67-162.79
		c0.26-16.17-3.18-22.4-20.95-22.36c-60.69,0.14-60.69-0.6-60.69,60.19c0,41.31-0.74,82.64,0.36,123.91
		c0.44,16.35-5.16,20.3-20.6,20.13c-67.78-0.74-135.57-0.74-203.35,0.01c-15.14,0.17-18.96-4.82-18.9-19.43
		c0.51-123.11,0.44-246.23,0.06-369.34c-0.04-12.03,4.54-19.3,13.9-25.98c85.43-60.99,170.71-122.17,255.75-183.7
		c9.84-7.12,16.66-8.03,27.2-0.36c84.86,61.77,170.11,123.02,255.67,183.81c10.67,7.58,13.76,15.79,13.65,28.24
		C721.7,640.86,722,701.61,722,762.35z"/>
	<path class="st1" d="M600.92,374.53c-26.62-18.8-48.67-34.99-71.39-50.17c-12.91-8.62-9.81-21.06-9.88-32.78
		c-0.3-54.22-0.19-54.22,53.77-54.22c149.32,0,298.64,0.29,447.96-0.38c18.24-0.08,24.69,3.67,24.62,23.66
		c-0.75,227.64-0.66,455.28-0.11,682.92c0.04,17.46-3.46,23.81-22.39,23.47c-66.97-1.22-133.98-0.84-200.96-0.19
		c-14.25,0.14-19.39-3.09-19.64-18.65c-1.03-63.61-1.62-63.6,62.17-63.6c26.64,0,53.29-0.68,79.9,0.27
		c14.18,0.5,19.6-2.92,19.56-18.6c-0.55-176.6-0.5-353.21-0.07-529.81c0.03-14.32-5.11-17.43-18.24-17.38
		c-108.96,0.42-217.93,0.55-326.88-0.11c-15.38-0.09-20.04,4.91-18.6,19.46C601.75,348.74,600.92,359.22,600.92,374.53z"/>
	<path class="st1" d="M803.31,438.31c0-39.85,0-39.85,39.28-39.85c40.29,0,40.29,0,40.28,41.29c0,40.68,0,40.68-40.5,40.68
		C803.31,480.43,803.31,480.43,803.31,438.31z"/>
	<path class="st1" d="M844.4,723.48c38.47,0,38.47,0,38.47,37.86c0,44.12,0,44.35-44.72,44.05c-39.7-0.27-34.29,5.31-34.84-34.54
		c-0.03-2.43,0-4.85,0-7.28C803.31,723.48,803.31,723.48,844.4,723.48z"/>
	<path class="st1" d="M882.86,602.23c0,39.35,0,39.35-46.69,39.33c-32.89-0.01-32.89-0.01-32.86-48.37
		c0.02-30.87,0.02-30.87,47.88-30.85C882.86,562.36,882.86,562.36,882.86,602.23z"/>
	<path class="st4" d="M237.66,742.11c0-40.49,0.52-81-0.3-121.47c-0.26-12.83,3.88-20.59,14.3-27.92
		c57.45-40.39,114.6-81.23,171.33-122.64c11.22-8.19,18.85-10.41,31.36-1.2c57.2,42.12,115.24,83.12,173.22,124.17
		c9.47,6.7,13.41,14.31,13.34,26.2c-0.48,81.79-0.65,163.59,0.09,245.38c0.15,16.18-5.11,20.22-20.61,20.32
		c-59.2,0.41-59.2,0.95-59.2-59c0-41.3-0.42-82.61,0.23-123.91c0.21-13.32-3.47-18.56-17.62-18.43
		c-69.39,0.6-138.79,0.67-208.17-0.02c-15.07-0.15-16.94,6.6-16.83,19.06c0.44,53.45-0.42,106.91,0.54,160.34
		c0.3,16.8-4.47,22.02-21.57,22.02c-60.09-0.01-60.09,0.65-60.09-60.3C237.66,797.18,237.66,769.65,237.66,742.11z"/>
</g>
</svg>
